<svg viewBox="0 0 1200 260" xmlns="http://www.w3.org/2000/svg">
  <defs>
    <radialGradient id="glow" cx="80%" cy="35%" r="75%">
      <stop offset="0%" stop-color="#134e4a" stop-opacity="0.55"/>
      <stop offset="100%" stop-color="#0d1117" stop-opacity="0"/>
    </radialGradient>
    <linearGradient id="hBorder" x1="0" y1="0" x2="1" y2="1">
      <stop offset="0%" stop-color="#2dd4bf" stop-opacity="0.5"/>
      <stop offset="100%" stop-color="#134e4a" stop-opacity="0.85"/>
    </linearGradient>
    <clipPath id="rounded"><rect x="0" y="0" width="1200" height="260" rx="16"/></clipPath>
  </defs>
  
  <style>
    .nd { animation: ndpulse var(--dur) ease-in-out infinite; transform-box: fill-box; transform-origin: center; }
    @keyframes ndpulse { 0%,100% { opacity: .35; transform: scale(0.85); } 50% { opacity: 1; transform: scale(1.15); } }
    .fadeUp { opacity:0; animation: fu .6s ease-out forwards; }
    @keyframes fu { from {opacity:0; transform:translateY(10px);} to {opacity:1; transform:translateY(0);} }
  </style>
  <g clip-path="url(#rounded)">
    <rect x="0" y="0" width="1200" height="260" fill="#0d1117"/>
    <rect x="0" y="0" width="1200" height="260" fill="url(#glow)"/>
    <line x1="761.7" y1="25.5" x2="658.4" y2="31.1" stroke="#134e4a" stroke-width="1" opacity="0.55"/><line x1="805.0" y1="216.3" x2="836.1" y2="154.6" stroke="#134e4a" stroke-width="1" opacity="0.55"/><line x1="805.0" y1="216.3" x2="720.3" y2="197.6" stroke="#134e4a" stroke-width="1" opacity="0.55"/><line x1="27.5" y1="197.3" x2="87.2" y2="213.2" stroke="#134e4a" stroke-width="1" opacity="0.55"/><line x1="27.5" y1="197.3" x2="132.2" y2="206.4" stroke="#134e4a" stroke-width="1" opacity="0.55"/><line x1="829.8" y1="94.9" x2="866.7" y2="64.3" stroke="#134e4a" stroke-width="1" opacity="0.55"/><line x1="829.8" y1="94.9" x2="866.5" y2="138.0" stroke="#134e4a" stroke-width="1" opacity="0.55"/><line x1="200.4" y1="230.6" x2="197.3" y2="187.8" stroke="#134e4a" stroke-width="1" opacity="0.55"/><line x1="200.4" y1="230.6" x2="132.2" y2="206.4" stroke="#134e4a" stroke-width="1" opacity="0.55"/><line x1="410.4" y1="40.4" x2="509.7" y2="34.0" stroke="#134e4a" stroke-width="1" opacity="0.55"/><line x1="410.4" y1="40.4" x2="285.7" y2="27.1" stroke="#134e4a" stroke-width="1" opacity="0.55"/><line x1="132.2" y1="206.4" x2="87.2" y2="213.2" stroke="#134e4a" stroke-width="1" opacity="0.55"/><line x1="132.2" y1="206.4" x2="197.3" y2="187.8" stroke="#134e4a" stroke-width="1" opacity="0.55"/><line x1="720.3" y1="197.6" x2="689.7" y2="175.0" stroke="#134e4a" stroke-width="1" opacity="0.55"/><line x1="720.3" y1="197.6" x2="660.4" y2="202.5" stroke="#134e4a" stroke-width="1" opacity="0.55"/><line x1="866.5" y1="138.0" x2="836.1" y2="154.6" stroke="#134e4a" stroke-width="1" opacity="0.55"/><line x1="1148.8" y1="103.3" x2="1174.7" y2="142.3" stroke="#134e4a" stroke-width="1" opacity="0.55"/><line x1="1148.8" y1="103.3" x2="1080.9" y2="120.9" stroke="#134e4a" stroke-width="1" opacity="0.55"/><line x1="660.4" y1="202.5" x2="689.7" y2="175.0" stroke="#134e4a" stroke-width="1" opacity="0.55"/><line x1="660.4" y1="202.5" x2="633.8" y2="233.6" stroke="#134e4a" stroke-width="1" opacity="0.55"/><line x1="1106.5" y1="162.6" x2="1080.9" y2="120.9" stroke="#134e4a" stroke-width="1" opacity="0.55"/><line x1="1106.5" y1="162.6" x2="1113.8" y2="212.8" stroke="#134e4a" stroke-width="1" opacity="0.55"/><line x1="997.7" y1="190.7" x2="988.1" y2="148.2" stroke="#134e4a" stroke-width="1" opacity="0.55"/><line x1="997.7" y1="190.7" x2="1041.8" y2="213.4" stroke="#134e4a" stroke-width="1" opacity="0.55"/><line x1="285.7" y1="27.1" x2="175.8" y2="45.4" stroke="#134e4a" stroke-width="1" opacity="0.55"/><line x1="1113.8" y1="212.8" x2="1078.6" y2="211.5" stroke="#134e4a" stroke-width="1" opacity="0.55"/><line x1="611.1" y1="40.0" x2="658.4" y2="31.1" stroke="#134e4a" stroke-width="1" opacity="0.55"/><line x1="611.1" y1="40.0" x2="509.7" y2="34.0" stroke="#134e4a" stroke-width="1" opacity="0.55"/><line x1="74.7" y1="44.1" x2="175.8" y2="45.4" stroke="#134e4a" stroke-width="1" opacity="0.55"/><line x1="462.7" y1="239.1" x2="534.0" y2="209.5" stroke="#134e4a" stroke-width="1" opacity="0.55"/><line x1="462.7" y1="239.1" x2="381.6" y2="238.9" stroke="#134e4a" stroke-width="1" opacity="0.55"/><line x1="633.8" y1="233.6" x2="568.3" y2="192.6" stroke="#134e4a" stroke-width="1" opacity="0.55"/><line x1="1018.5" y1="22.5" x2="1019.5" y2="74.7" stroke="#134e4a" stroke-width="1" opacity="0.55"/><line x1="1018.5" y1="22.5" x2="956.7" y2="61.9" stroke="#134e4a" stroke-width="1" opacity="0.55"/><line x1="1078.6" y1="211.5" x2="1041.8" y2="213.4" stroke="#134e4a" stroke-width="1" opacity="0.55"/><line x1="197.3" y1="187.8" x2="256.9" y2="177.6" stroke="#134e4a" stroke-width="1" opacity="0.55"/><line x1="984.7" y1="87.7" x2="1019.5" y2="74.7" stroke="#134e4a" stroke-width="1" opacity="0.55"/><line x1="984.7" y1="87.7" x2="956.7" y2="61.9" stroke="#134e4a" stroke-width="1" opacity="0.55"/><line x1="1118.5" y1="38.8" x2="1175.5" y2="36.1" stroke="#134e4a" stroke-width="1" opacity="0.55"/><line x1="1148.8" y1="103.3" x2="1118.5" y2="38.8" stroke="#134e4a" stroke-width="1" opacity="0.55"/><line x1="902.3" y1="188.5" x2="943.5" y2="209.4" stroke="#134e4a" stroke-width="1" opacity="0.55"/><line x1="866.5" y1="138.0" x2="902.3" y2="188.5" stroke="#134e4a" stroke-width="1" opacity="0.55"/><line x1="327.5" y1="211.9" x2="381.6" y2="238.9" stroke="#134e4a" stroke-width="1" opacity="0.55"/><line x1="327.5" y1="211.9" x2="256.9" y2="177.6" stroke="#134e4a" stroke-width="1" opacity="0.55"/><line x1="866.5" y1="138.0" x2="866.7" y2="64.3" stroke="#134e4a" stroke-width="1" opacity="0.55"/><line x1="568.3" y1="192.6" x2="534.0" y2="209.5" stroke="#134e4a" stroke-width="1" opacity="0.55"/><line x1="956.7" y1="61.9" x2="1019.5" y2="74.7" stroke="#134e4a" stroke-width="1" opacity="0.55"/><line x1="1179.2" y1="203.9" x2="1174.7" y2="142.3" stroke="#134e4a" stroke-width="1" opacity="0.55"/><line x1="1113.8" y1="212.8" x2="1179.2" y2="203.9" stroke="#134e4a" stroke-width="1" opacity="0.55"/><line x1="200.4" y1="230.6" x2="256.9" y2="177.6" stroke="#134e4a" stroke-width="1" opacity="0.55"/><line x1="1148.8" y1="103.3" x2="1175.5" y2="36.1" stroke="#134e4a" stroke-width="1" opacity="0.55"/><line x1="829.8" y1="94.9" x2="836.1" y2="154.6" stroke="#134e4a" stroke-width="1" opacity="0.55"/><line x1="984.7" y1="87.7" x2="988.1" y2="148.2" stroke="#134e4a" stroke-width="1" opacity="0.55"/><line x1="997.7" y1="190.7" x2="943.5" y2="209.4" stroke="#134e4a" stroke-width="1" opacity="0.55"/>
    <circle cx="761.7" cy="25.5" r="2.9" fill="#5eead4" class="nd" style="--dur:3.0s; animation-delay:0.7s"/><circle cx="805.0" cy="216.3" r="1.7" fill="#5eead4" class="nd" style="--dur:4.2s; animation-delay:2.7s"/><circle cx="27.5" cy="197.3" r="2.2" fill="#5eead4" class="nd" style="--dur:3.8s; animation-delay:0.5s"/><circle cx="829.8" cy="94.9" r="2.9" fill="#5eead4" class="nd" style="--dur:4.3s; animation-delay:2.9s"/><circle cx="200.4" cy="230.6" r="2.7" fill="#5eead4" class="nd" style="--dur:4.4s; animation-delay:0.1s"/><circle cx="410.4" cy="40.4" r="2.6" fill="#5eead4" class="nd" style="--dur:3.3s; animation-delay:2.8s"/><circle cx="132.2" cy="206.4" r="2.7" fill="#5eead4" class="nd" style="--dur:4.3s; animation-delay:2.4s"/><circle cx="720.3" cy="197.6" r="2.0" fill="#5eead4" class="nd" style="--dur:4.2s; animation-delay:0.3s"/><circle cx="866.5" cy="138.0" r="2.8" fill="#5eead4" class="nd" style="--dur:4.3s; animation-delay:0.7s"/><circle cx="1148.8" cy="103.3" r="2.7" fill="#5eead4" class="nd" style="--dur:3.5s; animation-delay:0.9s"/><circle cx="660.4" cy="202.5" r="2.7" fill="#5eead4" class="nd" style="--dur:3.1s; animation-delay:0.1s"/><circle cx="689.7" cy="175.0" r="1.9" fill="#5eead4" class="nd" style="--dur:3.3s; animation-delay:2.6s"/><circle cx="1106.5" cy="162.6" r="3.0" fill="#5eead4" class="nd" style="--dur:3.2s; animation-delay:1.9s"/><circle cx="997.7" cy="190.7" r="2.2" fill="#5eead4" class="nd" style="--dur:4.6s; animation-delay:1.6s"/><circle cx="285.7" cy="27.1" r="2.9" fill="#5eead4" class="nd" style="--dur:2.8s; animation-delay:2.9s"/><circle cx="1113.8" cy="212.8" r="1.8" fill="#5eead4" class="nd" style="--dur:4.5s; animation-delay:0.8s"/><circle cx="1080.9" cy="120.9" r="1.8" fill="#5eead4" class="nd" style="--dur:3.5s; animation-delay:2.2s"/><circle cx="611.1" cy="40.0" r="2.0" fill="#5eead4" class="nd" style="--dur:3.8s; animation-delay:1.5s"/><circle cx="74.7" cy="44.1" r="2.1" fill="#5eead4" class="nd" style="--dur:3.8s; animation-delay:0.8s"/><circle cx="509.7" cy="34.0" r="2.6" fill="#5eead4" class="nd" style="--dur:2.6s; animation-delay:2.8s"/><circle cx="462.7" cy="239.1" r="2.4" fill="#5eead4" class="nd" style="--dur:4.0s; animation-delay:2.2s"/><circle cx="633.8" cy="233.6" r="2.5" fill="#5eead4" class="nd" style="--dur:3.3s; animation-delay:0.2s"/><circle cx="1018.5" cy="22.5" r="2.5" fill="#5eead4" class="nd" style="--dur:3.3s; animation-delay:0.9s"/><circle cx="1078.6" cy="211.5" r="2.8" fill="#5eead4" class="nd" style="--dur:4.0s; animation-delay:0.9s"/><circle cx="197.3" cy="187.8" r="2.0" fill="#5eead4" class="nd" style="--dur:3.4s; animation-delay:1.2s"/><circle cx="984.7" cy="87.7" r="2.0" fill="#5eead4" class="nd" style="--dur:2.9s; animation-delay:1.3s"/><circle cx="87.2" cy="213.2" r="2.9" fill="#5eead4" class="nd" style="--dur:4.0s; animation-delay:2.7s"/><circle cx="1118.5" cy="38.8" r="2.5" fill="#5eead4" class="nd" style="--dur:3.2s; animation-delay:1.6s"/><circle cx="902.3" cy="188.5" r="1.6" fill="#5eead4" class="nd" style="--dur:3.2s; animation-delay:1.3s"/><circle cx="327.5" cy="211.9" r="2.4" fill="#5eead4" class="nd" style="--dur:3.9s; animation-delay:1.4s"/><circle cx="866.7" cy="64.3" r="2.2" fill="#5eead4" class="nd" style="--dur:3.0s; animation-delay:1.4s"/><circle cx="381.6" cy="238.9" r="2.9" fill="#5eead4" class="nd" style="--dur:4.2s; animation-delay:0.5s"/><circle cx="568.3" cy="192.6" r="1.7" fill="#5eead4" class="nd" style="--dur:3.6s; animation-delay:1.9s"/><circle cx="956.7" cy="61.9" r="2.1" fill="#5eead4" class="nd" style="--dur:4.2s; animation-delay:2.3s"/><circle cx="1019.5" cy="74.7" r="2.5" fill="#5eead4" class="nd" style="--dur:3.0s; animation-delay:0.6s"/><circle cx="534.0" cy="209.5" r="1.6" fill="#5eead4" class="nd" style="--dur:3.1s; animation-delay:1.4s"/><circle cx="658.4" cy="31.1" r="2.8" fill="#5eead4" class="nd" style="--dur:2.7s; animation-delay:1.2s"/><circle cx="1179.2" cy="203.9" r="2.5" fill="#5eead4" class="nd" style="--dur:3.0s; animation-delay:2.1s"/><circle cx="1174.7" cy="142.3" r="2.3" fill="#5eead4" class="nd" style="--dur:3.1s; animation-delay:2.0s"/><circle cx="256.9" cy="177.6" r="1.6" fill="#5eead4" class="nd" style="--dur:4.1s; animation-delay:2.3s"/><circle cx="1175.5" cy="36.1" r="1.7" fill="#5eead4" class="nd" style="--dur:3.5s; animation-delay:0.5s"/><circle cx="1041.8" cy="213.4" r="2.9" fill="#5eead4" class="nd" style="--dur:3.6s; animation-delay:0.2s"/><circle cx="836.1" cy="154.6" r="1.9" fill="#5eead4" class="nd" style="--dur:4.3s; animation-delay:1.4s"/><circle cx="175.8" cy="45.4" r="2.7" fill="#5eead4" class="nd" style="--dur:3.9s; animation-delay:3.0s"/><circle cx="988.1" cy="148.2" r="2.4" fill="#5eead4" class="nd" style="--dur:4.5s; animation-delay:2.7s"/><circle cx="943.5" cy="209.4" r="2.5" fill="#5eead4" class="nd" style="--dur:4.0s; animation-delay:1.5s"/>
    <circle r="2.1" fill="#5eead4"><animateMotion dur="3.6s" begin="1.6s" repeatCount="indefinite" path="M997.7,190.7 L943.5,209.4"/><animate attributeName="opacity" values="0;1;1;0" keyTimes="0;0.15;0.85;1" dur="3.6s" begin="1.6s" repeatCount="indefinite"/></circle><circle r="2.1" fill="#5eead4"><animateMotion dur="3.3s" begin="0.8s" repeatCount="indefinite" path="M197.3,187.8 L256.9,177.6"/><animate attributeName="opacity" values="0;1;1;0" keyTimes="0;0.15;0.85;1" dur="3.3s" begin="0.8s" repeatCount="indefinite"/></circle><circle r="2.1" fill="#5eead4"><animateMotion dur="2.3s" begin="0.9s" repeatCount="indefinite" path="M74.7,44.1 L175.8,45.4"/><animate attributeName="opacity" values="0;1;1;0" keyTimes="0;0.15;0.85;1" dur="2.3s" begin="0.9s" repeatCount="indefinite"/></circle><circle r="2.1" fill="#5eead4"><animateMotion dur="2.7s" begin="1.0s" repeatCount="indefinite" path="M410.4,40.4 L285.7,27.1"/><animate attributeName="opacity" values="0;1;1;0" keyTimes="0;0.15;0.85;1" dur="2.7s" begin="1.0s" repeatCount="indefinite"/></circle><circle r="2.1" fill="#5eead4"><animateMotion dur="3.2s" begin="0.4s" repeatCount="indefinite" path="M1179.2,203.9 L1174.7,142.3"/><animate attributeName="opacity" values="0;1;1;0" keyTimes="0;0.15;0.85;1" dur="3.2s" begin="0.4s" repeatCount="indefinite"/></circle><circle r="2.1" fill="#5eead4"><animateMotion dur="2.6s" begin="2.1s" repeatCount="indefinite" path="M462.7,239.1 L381.6,238.9"/><animate attributeName="opacity" values="0;1;1;0" keyTimes="0;0.15;0.85;1" dur="2.6s" begin="2.1s" repeatCount="indefinite"/></circle><circle r="2.1" fill="#5eead4"><animateMotion dur="3.5s" begin="0.2s" repeatCount="indefinite" path="M829.8,94.9 L836.1,154.6"/><animate attributeName="opacity" values="0;1;1;0" keyTimes="0;0.15;0.85;1" dur="3.5s" begin="0.2s" repeatCount="indefinite"/></circle><circle r="2.1" fill="#5eead4"><animateMotion dur="2.9s" begin="1.6s" repeatCount="indefinite" path="M1148.8,103.3 L1174.7,142.3"/><animate attributeName="opacity" values="0;1;1;0" keyTimes="0;0.15;0.85;1" dur="2.9s" begin="1.6s" repeatCount="indefinite"/></circle><circle r="2.1" fill="#5eead4"><animateMotion dur="2.9s" begin="0.6s" repeatCount="indefinite" path="M866.5,138.0 L836.1,154.6"/><animate attributeName="opacity" values="0;1;1;0" keyTimes="0;0.15;0.85;1" dur="2.9s" begin="0.6s" repeatCount="indefinite"/></circle><circle r="2.1" fill="#5eead4"><animateMotion dur="3.0s" begin="2.7s" repeatCount="indefinite" path="M902.3,188.5 L943.5,209.4"/><animate attributeName="opacity" values="0;1;1;0" keyTimes="0;0.15;0.85;1" dur="3.0s" begin="2.7s" repeatCount="indefinite"/></circle><circle r="2.1" fill="#5eead4"><animateMotion dur="3.3s" begin="2.1s" repeatCount="indefinite" path="M1148.8,103.3 L1080.9,120.9"/><animate attributeName="opacity" values="0;1;1;0" keyTimes="0;0.15;0.85;1" dur="3.3s" begin="2.1s" repeatCount="indefinite"/></circle>
    <text x="60" y="108" class="fadeUp" style="animation-delay:.1s" font-family="-apple-system,BlinkMacSystemFont,Segoe UI,Helvetica,Arial,sans-serif" font-size="42" font-weight="800" fill="#ffffff">MOHAMAD EL JAWAD MANSOUR</text>
    <text x="61" y="142" class="fadeUp" style="animation-delay:.35s" font-family="ui-monospace,SFMono-Regular,Consolas,monospace" font-size="19" fill="#5eead4">AI / ML Engineer · Data Scientist</text>
  </g>
  <rect x="1" y="1" width="1198" height="258" rx="16" fill="none" stroke="url(#hBorder)" stroke-width="1.5"/>
</svg>